<?xml version="1.0" standalone="no"?>
<!DOCTYPE svg PUBLIC "-//W3C//DTD SVG 20010904//EN"
 "http://www.w3.org/TR/2001/REC-SVG-20010904/DTD/svg10.dtd">
<svg version="1.0" xmlns="http://www.w3.org/2000/svg"
 width="1000.000000pt" height="1000.000000pt" viewBox="0 0 1000.000000 1000.000000"
 preserveAspectRatio="xMidYMid meet">
<metadata>
Created by potrace 1.14, written by Peter Selinger 2001-2017
</metadata>
<g transform="translate(0.000000,1000.000000) scale(0.100000,-0.100000)"
fill="#000000" stroke="none">
<path d="M5460 8959 c-206 -19 -491 -67 -640 -108 -141 -40 -188 -54 -205 -61
-11 -5 -36 -13 -55 -19 -53 -15 -123 -40 -142 -51 -10 -6 -23 -10 -30 -10 -7
-1 -31 -9 -53 -20 -22 -11 -44 -19 -49 -20 -25 -1 -356 -167 -486 -244 -151
-89 -152 -89 -166 -101 -7 -5 -45 -32 -84 -60 -108 -75 -279 -206 -335 -255
-63 -55 -356 -348 -414 -415 -57 -64 -225 -284 -276 -360 -22 -33 -42 -62 -46
-65 -3 -3 -25 -39 -50 -80 -24 -41 -46 -77 -49 -80 -5 -5 -19 -30 -84 -155
-22 -44 -44 -82 -48 -85 -3 -3 -10 -18 -13 -33 -4 -15 -11 -27 -16 -27 -5 0
-9 -5 -9 -12 0 -12 -27 -77 -55 -131 -8 -16 -15 -33 -15 -39 0 -5 -7 -24 -15
-41 -20 -44 -85 -220 -85 -232 0 -5 -6 -22 -14 -36 -7 -14 -16 -43 -20 -64 -4
-20 -11 -45 -16 -54 -23 -43 -87 -338 -116 -536 -28 -190 -52 -555 -36 -555 4
0 27 31 52 68 265 397 671 900 1144 1422 135 148 731 735 865 850 l143 124 -6
64 c-16 150 -40 227 -112 352 l-38 65 55 -39 c120 -87 270 -136 414 -136 l78
0 116 84 c266 192 632 426 901 575 128 71 468 236 609 295 149 63 366 139 381
134 5 -2 -52 -34 -128 -72 -75 -38 -162 -84 -192 -101 -30 -17 -98 -55 -150
-85 -187 -106 -400 -242 -665 -424 -133 -92 -289 -209 -450 -337 -187 -148
-190 -152 -209 -208 -26 -78 -27 -271 -2 -361 23 -83 57 -156 101 -213 55 -72
43 -78 -31 -17 -138 114 -360 165 -541 125 -146 -33 -147 -35 -491 -395 -290
-304 -485 -526 -688 -785 -450 -574 -797 -1142 -998 -1635 -15 -36 -31 -74
-36 -85 -30 -63 -47 -123 -40 -135 4 -8 13 -44 19 -80 7 -36 19 -85 26 -110 7
-25 21 -72 30 -105 9 -33 20 -69 25 -80 5 -11 13 -36 19 -55 13 -48 39 -119
56 -157 8 -17 15 -36 15 -42 0 -6 4 -19 10 -29 5 -9 23 -48 41 -87 98 -221
116 -257 219 -430 121 -205 324 -490 389 -549 11 -11 21 -25 21 -31 0 -22 326
-342 475 -466 22 -19 42 -36 45 -39 3 -3 39 -31 80 -63 93 -70 93 -70 112 -82
23 -14 187 -123 220 -146 15 -11 30 -19 34 -19 3 0 18 -8 32 -19 82 -58 364
-198 527 -262 33 -12 64 -27 70 -31 5 -4 16 -8 25 -8 8 0 27 -6 41 -14 32 -16
240 -83 289 -92 19 -4 40 -10 45 -14 6 -4 33 -11 60 -15 28 -4 55 -10 60 -15
6 -4 33 -11 60 -14 28 -4 64 -11 80 -16 45 -14 226 -41 345 -51 58 -5 144 -13
191 -19 109 -13 365 -13 421 0 24 5 106 14 183 20 183 13 304 31 488 70 110
23 143 32 162 40 11 5 36 12 55 16 43 8 249 72 272 85 10 5 23 9 28 9 6 0 30
8 53 19 23 10 74 31 112 46 143 55 552 268 610 317 5 5 47 33 93 63 285 186
607 482 861 790 31 37 126 162 141 185 8 12 29 41 46 64 16 22 41 59 54 81 13
22 27 42 30 45 3 3 11 16 18 30 18 36 36 66 49 81 33 42 186 346 243 484 22
55 45 109 50 120 5 11 28 79 50 150 23 72 45 137 50 145 4 9 11 36 15 60 4 25
11 50 15 55 4 6 12 35 18 65 6 30 21 100 32 155 54 270 71 445 71 770 0 363
-15 528 -81 855 -23 114 -35 165 -41 175 -4 6 -10 26 -13 45 -4 19 -11 46 -16
60 -5 14 -21 66 -35 115 -15 50 -33 104 -40 120 -7 17 -21 53 -30 80 -10 28
-21 55 -25 60 -3 6 -19 44 -35 85 -17 41 -33 77 -37 78 -5 2 -8 9 -8 15 -1 27
-204 408 -222 415 -4 2 -8 7 -8 12 0 7 -60 101 -122 194 -26 38 -183 242 -201
261 -11 11 -26 30 -35 43 -15 23 -16 23 -39 -40 -13 -35 -27 -72 -33 -83 -5
-11 -19 -42 -30 -70 -48 -111 -120 -259 -180 -370 -82 -149 -133 -241 -141
-251 -6 -8 -4 -14 5 -17 8 -3 16 -1 18 5 3 7 12 9 24 4 18 -8 18 -8 -3 -16
-28 -11 -57 -55 -49 -76 11 -28 -5 -36 -26 -12 -24 27 -16 35 -103 -102 -63
-98 -49 -77 -167 -250 -139 -205 -477 -651 -610 -804 -115 -133 -188 -225
-188 -236 0 -6 6 -18 13 -26 51 -63 80 -74 130 -51 17 9 46 19 62 23 30 7 29
6 -10 -25 -82 -65 -78 -58 -72 -114 3 -29 9 -63 13 -77 7 -22 6 -23 -7 -10 -8
8 -24 27 -36 43 l-21 27 -36 -54 c-20 -30 -36 -64 -36 -76 0 -12 14 -40 31
-62 37 -46 31 -61 -11 -30 -49 37 -84 39 -132 7 -39 -26 -40 -28 -23 -41 21
-16 68 -18 93 -5 9 4 30 11 45 15 42 10 24 -10 -31 -35 -74 -34 -85 -52 -78
-126 4 -35 3 -63 -1 -63 -4 0 -17 18 -27 40 -29 61 -47 73 -104 69 -37 -3 -48
-1 -45 9 3 6 9 12 15 12 5 0 21 11 35 24 25 23 26 28 20 95 -3 39 -4 71 -2 71
2 0 14 -18 27 -41 l23 -41 22 29 c32 39 31 95 -2 131 -14 16 -32 37 -40 48
-14 18 -16 17 -52 -21 -20 -22 -88 -96 -152 -164 -68 -73 -120 -136 -125 -155
-51 -175 -102 -310 -172 -449 -13 -27 -24 -52 -24 -57 0 -4 21 -52 46 -107
102 -218 117 -261 117 -348 1 -86 -17 -155 -62 -238 -42 -80 -259 -357 -275
-353 -7 1 -28 45 -110 226 -51 114 -117 257 -124 268 -13 24 -45 38 -282 122
-80 29 -158 58 -175 65 -16 7 -77 30 -135 51 -58 20 -114 43 -125 50 -11 7
-36 16 -56 19 -38 7 -70 -4 -267 -96 -45 -22 -84 -39 -86 -39 -2 0 -43 -18
-90 -40 -47 -22 -91 -40 -97 -40 -15 0 -5 310 11 405 26 144 93 260 186 323
27 18 120 64 205 101 126 55 155 72 161 92 4 13 17 58 28 99 51 180 139 377
245 549 91 148 171 248 292 368 62 62 113 116 113 119 0 4 -31 4 -70 0 -38 -3
-70 -3 -70 1 0 5 22 18 50 30 58 26 82 68 68 118 -11 39 -10 55 2 55 6 0 10
-7 10 -15 0 -8 5 -15 10 -15 6 0 10 -6 10 -13 0 -19 40 -53 69 -60 29 -7 115
10 151 29 14 7 50 24 80 38 30 13 86 38 124 55 38 17 73 31 78 31 17 0 147
-295 176 -401 24 -87 52 -258 52 -318 0 -51 -3 -53 100 79 41 52 77 97 80 100
27 25 364 493 471 655 208 313 513 855 489 870 -6 4 -20 6 -33 5 -41 -4 -42 0
-9 30 25 23 31 35 26 54 -9 36 10 39 30 5 l18 -31 19 31 c10 17 19 35 19 39 1
4 9 25 20 47 11 22 19 47 20 56 0 8 4 19 9 25 9 10 66 176 99 289 42 141 71
306 79 440 l5 90 -93 70 c-150 112 -254 182 -344 231 -27 14 -52 29 -55 33
-12 15 -300 160 -415 210 -55 23 -113 49 -130 56 -49 21 -198 73 -230 81 -16
4 -34 10 -40 14 -5 4 -27 11 -49 14 -21 4 -46 11 -55 16 -9 5 -36 14 -61 19
-25 6 -83 20 -130 31 -153 37 -382 74 -560 90 -123 10 -577 10 -700 -1z m-324
-1435 c-19 -18 -23 -19 -38 -6 -22 18 -22 26 -2 46 14 14 17 14 39 -2 l23 -17
-22 -21z m204 26 c0 -5 -2 -10 -4 -10 -3 0 -8 5 -11 10 -3 6 -1 10 4 10 6 0
11 -4 11 -10z m-100 -42 c0 -70 59 -118 144 -118 51 0 16 -18 -43 -22 -74 -5
-100 -30 -101 -95 0 -58 -13 -54 -29 8 -17 67 -40 89 -90 89 -75 0 -57 18 44
45 26 6 55 58 55 96 0 16 5 29 10 29 6 0 10 -15 10 -32z m2108 -171 c2 -42 -2
-74 -9 -83 -9 -11 -49 -14 -190 -14 l-179 0 0 -54 0 -55 170 -3 170 -3 27 -28
c28 -27 28 -30 31 -168 4 -160 -3 -188 -55 -219 -33 -19 -48 -20 -266 -18
l-232 3 0 75 0 75 180 6 c99 4 181 7 183 8 1 0 2 26 2 56 l0 55 -166 0 -166 0
-29 29 -29 29 0 152 c0 84 5 160 10 170 26 49 84 58 350 56 l195 -1 3 -68z
m-760 11 c6 -13 15 -47 20 -76 9 -51 9 -54 -15 -63 -13 -5 -33 -9 -44 -9 -11
0 -27 -4 -37 -10 -9 -5 -39 -14 -67 -20 -129 -28 -168 -39 -175 -46 -5 -5 -4
-30 2 -56 13 -54 21 -57 90 -34 24 8 63 17 88 21 25 4 50 11 55 15 24 18 96
20 131 4 37 -18 56 -50 74 -129 6 -27 18 -77 26 -110 30 -127 2 -159 -173
-200 -65 -15 -125 -30 -133 -33 -8 -3 -40 -11 -70 -18 -30 -7 -72 -17 -92 -22
-32 -8 -38 -7 -39 7 -1 14 -2 14 -6 -1 -2 -10 -11 -18 -18 -18 -7 0 -15 -3
-17 -7 -1 -5 -36 -25 -77 -45 l-74 -38 -96 52 c-53 28 -106 57 -118 65 -25 16
-81 9 -89 -11 -4 -11 57 -139 77 -161 13 -13 11 -45 -3 -58 -17 -16 -120 -67
-135 -67 -6 0 -24 26 -41 58 -147 285 -282 553 -282 561 0 5 35 27 78 49 386
198 384 197 435 170 30 -15 41 -33 114 -175 35 -68 63 -135 63 -149 0 -31 -26
-84 -43 -84 -15 0 31 -37 57 -46 10 -3 40 -19 66 -34 26 -15 57 -31 68 -34 21
-7 22 -5 19 55 l-2 63 55 13 c188 43 273 65 282 73 13 10 -18 105 -33 102
-228 -56 -294 -68 -326 -56 -37 13 -69 63 -78 121 -4 27 -10 53 -15 58 -15 19
-29 134 -20 165 17 61 46 73 280 123 30 7 60 15 65 18 6 4 30 10 55 14 25 4
52 11 60 16 26 15 46 10 58 -13z m-1738 -98 c27 0 31 -3 25 -17 -10 -22 -9
-40 1 -73 l7 -24 -27 22 c-20 15 -36 20 -54 15 -22 -5 -24 -3 -17 13 9 23 9
31 -1 63 -6 21 -5 22 14 12 11 -6 35 -11 52 -11z m490 -539 c0 -11 19 -15 58
-12 31 3 28 -12 -7 -27 -20 -9 -31 -22 -35 -45 l-7 -32 -22 28 c-13 15 -30 27
-40 27 -22 0 -21 6 3 30 11 11 20 32 20 46 0 23 2 24 15 10 8 -8 15 -19 15
-25z m-119 -141 c13 0 35 9 49 20 42 33 55 23 21 -15 -38 -43 -39 -74 -6 -132
30 -51 25 -54 -21 -13 -50 44 -76 47 -129 16 -53 -31 -56 -26 -15 20 44 51 46
74 14 131 l-29 48 46 -37 c25 -21 57 -38 70 -38z m3179 -61 c27 -21 41 -21 85
-3 20 8 20 8 1 -20 -14 -22 -17 -38 -12 -68 l7 -40 -32 20 -32 20 -34 -20
c-44 -26 -51 -19 -18 20 29 34 31 50 10 78 -29 38 -18 44 25 13z m-3503 -56
c38 -20 104 -55 148 -78 44 -23 107 -57 140 -75 33 -18 107 -57 165 -87 58
-30 109 -59 114 -63 10 -10 -103 -140 -121 -140 -7 0 -33 11 -59 25 -26 14
-52 25 -57 25 -6 0 -43 -35 -84 -77 -64 -66 -73 -81 -68 -102 4 -14 10 -28 13
-31 4 -3 15 -20 25 -38 l19 -33 -65 -66 c-73 -75 -75 -75 -120 9 -13 23 -38
66 -55 93 -17 28 -32 56 -32 63 0 6 -4 12 -9 12 -5 0 -14 12 -20 28 -6 15 -22
45 -36 67 -14 22 -28 47 -32 55 -4 8 -9 17 -12 20 -4 3 -12 16 -19 30 -7 14
-18 34 -25 45 -50 83 -78 137 -75 145 3 10 188 210 194 210 2 0 34 -16 71 -37z
m1854 12 c28 6 41 -7 19 -20 -17 -11 -11 -54 9 -65 11 -5 21 -20 23 -32 2 -12
14 -28 28 -35 l24 -12 -27 -10 c-17 -7 -27 -18 -27 -30 0 -32 -15 -32 -29 0
-7 17 -20 29 -31 29 -31 0 -30 15 1 29 16 7 29 19 29 27 0 22 -45 46 -74 38
-26 -6 -37 8 -15 22 7 4 8 20 4 41 -6 33 -5 34 15 23 12 -6 34 -8 51 -5z
m-2728 -220 c66 -50 76 -65 58 -88 -61 -77 -86 -98 -108 -92 -29 7 -83 54 -83
71 0 8 -12 16 -27 20 -47 10 -53 13 -53 27 0 8 8 22 19 31 15 14 23 15 44 5
14 -6 34 -8 44 -5 16 7 15 10 -9 31 -32 28 -34 37 -12 59 19 19 32 13 127 -59z
m3191 3 c29 -69 41 -78 108 -78 64 0 74 -11 29 -30 -48 -19 -64 -44 -63 -96 1
-25 4 -55 7 -65 12 -37 -14 -18 -36 27 -13 25 -28 48 -34 52 -5 4 -37 9 -70
12 l-60 5 45 31 45 30 -2 77 c-1 42 1 77 5 77 4 0 16 -19 26 -42z m-1424 -153
c0 -20 54 -46 77 -38 12 4 9 -2 -9 -20 -19 -17 -28 -36 -28 -57 0 -36 -2 -37
-34 -5 -14 14 -34 25 -46 25 -25 0 -26 12 0 35 13 11 20 31 20 52 0 20 4 32
10 28 6 -3 10 -13 10 -20z m2773 -31 c-5 -31 -2 -38 28 -64 39 -32 36 -46 -5
-25 -37 20 -49 19 -71 -5 -26 -28 -38 -25 -30 9 5 24 1 34 -19 52 -30 26 -25
40 12 33 19 -4 35 1 52 15 35 28 40 26 33 -15z m-4807 -90 c13 -3 24 -10 24
-14 0 -4 10 -10 23 -14 12 -3 38 -19 57 -35 l35 -29 -29 -57 c-35 -68 -56 -81
-99 -64 -58 22 -137 73 -143 91 -7 22 34 105 61 124 11 8 26 12 33 9 8 -3 25
-8 38 -11z m756 -21 c18 -10 35 -21 38 -24 5 -6 100 -61 140 -81 14 -7 27 -15
30 -18 6 -6 41 -26 118 -66 28 -16 52 -32 52 -36 0 -4 6 -8 13 -8 7 0 26 -14
43 -31 52 -54 43 -88 -70 -279 -105 -177 -122 -200 -143 -200 -7 0 -13 -4 -13
-10 0 -20 -61 -9 -108 20 -27 17 -52 30 -55 30 -3 0 -25 12 -49 28 -74 47 -82
52 -108 64 -14 7 -27 15 -30 18 -3 3 -16 11 -30 18 -14 7 -38 21 -55 32 -16
11 -37 23 -45 27 -53 23 -89 70 -90 115 0 33 190 363 229 395 32 28 86 30 133
6z m3956 -86 c-5 -10 -6 -26 -3 -36 5 -16 -1 -19 -40 -23 -37 -3 -44 -1 -38
12 3 8 6 26 5 40 -1 23 3 25 43 25 38 0 42 -2 33 -18z m-4868 -243 c128 -43
138 -55 114 -134 -20 -62 -37 -79 -61 -58 -14 11 -14 27 3 86 5 17 2 22 -12
22 -11 0 -32 7 -48 15 -34 18 -43 13 -54 -27 -11 -43 -36 -58 -59 -35 -14 13
-15 21 -7 35 6 10 15 32 19 50 6 27 37 62 55 62 3 0 25 -7 50 -16z m550 -312
c36 -10 99 -29 140 -41 41 -13 84 -27 95 -31 11 -5 36 -12 55 -16 19 -3 41
-10 50 -15 8 -4 41 -16 74 -25 113 -34 142 -85 108 -191 -10 -32 -29 -92 -41
-133 -13 -41 -27 -84 -31 -95 -5 -11 -12 -34 -15 -51 -3 -17 -18 -46 -34 -64
-25 -30 -33 -34 -77 -34 -42 0 -185 37 -249 64 -11 5 -36 12 -55 16 -19 3 -41
10 -50 15 -8 4 -49 17 -90 29 -41 12 -94 28 -117 36 -48 17 -48 16 -16 119 23
77 28 80 88 55 11 -5 54 -18 95 -30 124 -36 204 -61 220 -70 9 -4 35 -11 58
-15 23 -4 44 -11 48 -16 11 -19 34 -8 47 24 19 42 47 132 47 150 0 10 -30 24
-87 42 -49 14 -97 30 -108 35 -11 5 -36 12 -55 16 -19 3 -39 9 -45 13 -5 4
-48 18 -95 31 -47 13 -93 27 -102 32 -19 9 -25 53 -9 62 5 4 12 25 16 48 10
59 24 78 49 68 12 -5 50 -17 86 -28z m-606 -38 c39 -9 77 -18 84 -20 18 -5 15
-54 -4 -61 -10 -3 -30 -1 -45 4 -42 16 -44 -2 -4 -34 25 -20 35 -36 35 -55 0
-36 -28 -37 -69 -2 -29 24 -33 25 -87 14 -61 -13 -76 -7 -68 26 6 23 31 39 77
48 35 8 35 26 -1 26 -41 0 -66 21 -58 48 9 27 40 28 140 6z m42 -377 c3 -2 1
-36 -2 -76 -6 -66 -9 -71 -30 -71 -25 0 -27 3 -28 59 -1 45 -24 53 -28 9 -2
-28 -7 -33 -28 -33 -21 0 -26 5 -28 33 -5 52 -30 41 -34 -15 -3 -44 -5 -48
-28 -48 -27 0 -26 -5 -22 106 l2 52 111 -6 c61 -3 113 -8 115 -10z m-599 -122
c-3 -19 -2 -35 4 -35 5 0 9 5 9 12 0 20 32 48 54 48 50 -1 70 -47 44 -107 -16
-38 -16 -37 -33 -23 -8 7 -15 24 -16 39 0 26 0 26 -11 3 -14 -28 -45 -36 -81
-23 -28 11 -31 21 -21 84 6 31 10 37 32 37 23 0 24 -3 19 -35z m4033 -95 c-8
-5 -19 -10 -25 -10 -5 0 -3 5 5 10 8 5 20 10 25 10 6 0 3 -5 -5 -10z m-3430
-126 c6 -14 10 -55 10 -90 0 -62 -1 -65 -22 -62 -13 2 -29 15 -36 32 -13 26
-17 28 -51 21 -20 -4 -56 -8 -81 -9 -44 -1 -45 0 -45 29 0 26 4 30 30 33 133
11 135 12 135 43 0 24 4 29 25 29 18 0 28 -7 35 -26z m-522 -26 c6 -6 12 -30
12 -54 0 -60 -28 -79 -102 -69 -29 4 -59 12 -65 17 -20 16 -17 105 5 118 20
12 130 3 150 -12z m5206 -90 c16 -15 32 -18 71 -14 l50 5 -39 -24 c-50 -30
-57 -42 -49 -85 l6 -35 -37 33 c-32 28 -41 31 -76 26 -50 -8 -52 7 -5 29 31
15 35 21 35 55 0 40 11 63 19 40 2 -7 14 -20 25 -30z m147 -58 c5 0 9 -7 9
-16 0 -9 14 -29 31 -45 23 -22 41 -29 69 -29 22 0 41 4 44 9 3 5 19 11 35 13
21 3 28 1 24 -9 -3 -7 -11 -13 -19 -13 -22 0 -92 -47 -104 -70 -7 -13 -9 -42
-4 -77 5 -41 4 -54 -5 -49 -6 4 -11 14 -11 21 0 8 -14 30 -31 50 -32 36 -71
46 -108 26 -9 -5 -23 -6 -29 -2 -8 5 0 15 25 32 51 33 67 68 55 122 -5 23 -6
49 -3 57 4 12 6 12 9 -2 2 -10 8 -18 13 -18z m-5358 -114 c20 -15 24 -100 5
-112 -14 -9 -38 23 -38 53 0 25 -7 28 -44 14 -18 -8 -25 -19 -28 -43 -2 -25
-8 -34 -25 -36 -20 -3 -23 1 -25 35 -2 46 1 75 7 81 6 7 73 19 105 21 14 0 33
-6 43 -13z m589 -91 c10 -33 16 -70 13 -81 -7 -29 -69 -58 -110 -51 -25 4 -38
1 -51 -14 -25 -28 -58 -21 -62 12 -2 20 4 32 27 49 44 31 41 49 -8 43 -34 -5
-40 -2 -46 17 -4 12 -4 24 -1 28 10 9 76 30 120 38 23 3 48 10 56 15 29 17 43
4 62 -56z m-544 -144 c8 -5 12 -17 10 -27 -2 -14 -17 -22 -58 -30 -30 -5 -63
-14 -73 -18 -19 -9 -47 8 -47 30 0 7 17 18 38 23 20 5 53 14 72 19 46 13 43
13 58 3z m630 -155 c2 -19 -4 -36 -19 -52 l-22 -24 40 0 c28 0 43 -5 47 -16
16 -41 9 -44 -83 -44 -50 0 -93 -4 -96 -10 -11 -18 -53 -11 -60 10 -8 24 10
50 34 50 9 0 41 27 70 61 58 65 84 73 89 25z m4347 -20 c18 -13 18 -15 1 -50
-24 -51 -14 -56 27 -12 39 41 44 42 92 22 52 -22 55 -51 12 -148 -8 -19 -19
-28 -35 -28 -31 0 -35 18 -17 70 8 23 13 45 10 48 -3 3 -22 -13 -43 -36 -41
-44 -60 -46 -109 -14 -28 18 -29 46 -3 104 28 64 33 67 65 44z m-4910 -41 c30
-76 -8 -108 -42 -35 l-12 25 0 -27 c-1 -38 -21 -46 -44 -17 -18 21 -19 21 -15
4 3 -11 9 -27 13 -37 10 -25 -33 -35 -50 -11 -16 21 -29 79 -20 92 3 5 19 12
36 16 17 4 42 13 57 21 45 23 59 18 77 -31z m2255 -45 c0 -5 -13 -16 -29 -25
-22 -11 -28 -20 -24 -34 3 -11 13 -23 22 -26 104 -35 145 -52 148 -61 2 -6
-25 -36 -60 -66 l-64 -54 50 -12 c28 -6 53 -14 56 -18 3 -3 -9 -32 -26 -65
l-32 -59 69 35 c67 34 70 34 80 16 5 -11 10 -26 10 -34 0 -7 7 -38 16 -68 l16
-54 35 70 c19 39 42 80 50 93 l14 23 74 -65 c40 -36 75 -66 78 -66 2 0 -1 34
-8 76 -14 90 -11 93 66 70 87 -26 89 -25 89 45 0 54 2 60 15 49 8 -7 15 -16
15 -20 0 -4 23 -49 50 -100 28 -51 48 -95 45 -98 -3 -3 -46 5 -95 18 -50 12
-92 21 -94 19 -2 -2 2 -26 9 -54 15 -61 54 -232 61 -262 2 -13 0 -23 -7 -23
-6 0 -70 57 -141 128 -71 70 -133 128 -137 130 -5 1 -41 -98 -81 -220 -87
-271 -101 -308 -110 -308 -4 0 -11 66 -14 148 -8 170 -24 373 -30 379 -2 3
-35 -15 -73 -39 -37 -25 -86 -55 -108 -68 -22 -13 -62 -38 -90 -55 -116 -73
-177 -107 -182 -102 -3 3 61 91 141 196 80 104 146 192 146 195 0 3 -16 6 -36
6 -28 0 -67 -21 -192 -103 -215 -141 -240 -157 -251 -157 -5 0 -11 -4 -13 -8
-3 -8 -175 -112 -184 -112 -4 0 -212 -118 -223 -127 -3 -2 5 -12 17 -23 12
-11 19 -27 16 -35 -8 -20 -63 -20 -70 0 -4 8 -15 15 -26 15 -19 0 -19 -2 6
-34 32 -42 32 -58 4 -96 -31 -42 -69 -40 -127 7 -25 21 -47 41 -49 45 -2 4
-11 3 -20 -2 -17 -9 -59 -28 -157 -70 -27 -12 -59 -26 -70 -31 -152 -66 -399
-152 -424 -147 -9 2 43 33 114 69 362 183 695 384 1020 615 33 24 78 56 100
71 40 28 280 209 388 292 31 24 57 47 57 50 0 3 -25 17 -55 31 -30 14 -55 31
-55 38 0 6 3 12 8 12 4 1 66 16 137 35 72 19 131 34 133 34 1 1 2 -3 2 -9z
m1945 -81 c28 -59 54 -73 119 -65 30 3 63 9 73 13 17 6 17 6 1 -10 -9 -9 -24
-17 -32 -17 -9 0 -16 -4 -16 -9 0 -5 -11 -12 -25 -15 -36 -9 -48 -40 -42 -106
4 -31 10 -65 14 -76 12 -33 -20 5 -39 47 -30 62 -49 73 -120 66 l-63 -5 30 21
c73 54 78 63 72 133 -4 35 -3 64 1 64 4 0 16 -19 27 -41z m-4105 -91 c16 -29
30 -57 30 -61 0 -14 -33 -20 -51 -9 -15 10 -27 7 -65 -13 -36 -19 -50 -22 -60
-14 -24 20 -15 35 34 60 32 17 47 30 47 44 0 23 12 45 25 45 5 0 23 -24 40
-52z m4666 -43 c19 -14 19 -15 -4 -55 -24 -42 -13 -55 17 -19 15 18 21 20 39
10 26 -14 28 -33 7 -51 -15 -12 -12 -30 5 -30 4 0 17 15 28 34 16 27 25 33 42
29 12 -3 24 -11 26 -18 6 -13 -55 -122 -72 -129 -5 -2 -41 16 -80 40 -38 24
-79 48 -91 54 -13 5 -23 15 -23 21 0 15 69 129 79 129 4 0 16 -7 27 -15z
m-4562 -159 c-1 -32 1 -36 18 -30 20 6 48 -11 48 -30 0 -6 -21 -17 -47 -24
-27 -8 -63 -20 -81 -28 -18 -8 -38 -12 -43 -9 -16 11 -10 44 11 55 11 6 20 15
20 21 0 19 51 90 63 86 7 -2 11 -20 11 -41z m685 -75 c38 -48 39 -59 4 -67
-21 -6 -30 -2 -41 14 -26 39 -28 35 -56 -93 -9 -40 -16 -51 -33 -53 -13 -2
-26 4 -32 16 -5 10 -24 34 -40 51 -53 56 -32 121 38 123 18 1 39 10 52 25 34
36 71 30 108 -16z m3696 -49 c3 -9 -5 -31 -20 -51 l-26 -36 37 -32 c21 -18 41
-33 45 -33 5 0 18 14 31 30 24 33 52 39 67 13 7 -13 2 -27 -21 -56 -17 -21
-41 -45 -54 -54 -27 -17 -43 -10 -107 46 -82 71 -84 82 -26 152 40 48 61 54
74 21z m-198 -299 c92 -106 88 -100 68 -123 -22 -24 -37 -25 -81 -4 -45 21
-51 14 -18 -21 29 -31 24 -57 -11 -64 -18 -3 -38 16 -122 117 l-36 43 22 23
c22 23 25 24 58 10 48 -20 59 -14 33 19 -21 27 -21 29 -5 47 10 11 21 20 26
20 4 0 33 -30 66 -67z m-327 -190 c0 -16 -10 -29 -30 -41 -41 -23 -37 -33 12
-30 34 2 43 0 46 -15 2 -11 -5 -25 -17 -34 -36 -25 -13 -33 30 -10 34 18 41
19 49 7 18 -28 9 -45 -41 -78 -55 -36 -76 -38 -93 -7 -6 11 -13 22 -16 25 -16
16 -80 122 -80 132 1 17 111 87 127 81 7 -3 13 -16 13 -30z m-2498 -55 c86
-48 92 -61 57 -128 -30 -57 -52 -66 -101 -44 -40 18 -41 18 -58 -3 -21 -27
-60 -21 -60 9 0 11 15 46 33 77 18 31 39 68 47 84 16 33 29 34 82 5z m2236
-178 c23 -49 42 -96 42 -104 0 -13 -28 -36 -44 -36 -6 0 -65 116 -82 164 -11
29 -11 42 -3 52 25 31 44 14 87 -76z m-1896 14 c30 -16 31 -16 24 -77 -17
-171 -16 -168 -45 -165 -19 2 -27 9 -29 28 -4 32 -46 55 -63 34 -23 -28 -75
-10 -65 22 3 11 18 33 33 49 16 17 45 51 66 78 21 26 41 47 43 47 3 0 19 -7
36 -16z m1636 -37 c5 -25 -14 -44 -49 -52 -28 -6 -30 -9 -23 -38 15 -72 34
-93 60 -68 17 17 56 17 67 0 17 -28 2 -44 -62 -63 -58 -17 -63 -17 -80 -2 -21
19 -61 129 -61 169 0 29 7 35 70 59 54 20 74 19 78 -5z m-1323 -57 c3 -5 18
-10 33 -10 36 0 55 -14 50 -36 -3 -16 -12 -19 -54 -18 -50 1 -50 1 -62 -37
-19 -60 -16 -67 31 -76 36 -7 42 -12 45 -36 4 -32 -21 -46 -49 -29 -10 7 -30
12 -44 12 -39 0 -69 36 -61 74 21 112 28 133 47 149 23 19 54 22 64 7z m995
-39 c0 -25 -21 -41 -64 -48 -51 -8 -45 -23 9 -23 55 0 85 -28 85 -78 0 -46
-20 -62 -92 -72 -71 -10 -78 -8 -78 26 0 17 6 24 19 24 30 0 81 21 75 31 -3 5
-19 9 -35 9 -42 0 -64 14 -79 50 -25 60 18 98 113 99 40 1 47 -2 47 -18z
m-591 -20 c9 -6 11 -18 7 -35 -6 -23 -11 -26 -51 -26 -25 0 -45 -4 -45 -10 0
-5 14 -10 30 -10 27 0 30 -3 30 -30 0 -27 -3 -30 -30 -30 -44 0 -37 -16 13
-26 36 -8 42 -13 45 -36 l3 -28 -68 0 c-99 0 -102 4 -90 120 5 52 11 101 13
108 4 14 121 17 143 3z"/>
<path d="M5676 6896 c-44 -23 -82 -48 -84 -54 -4 -12 40 -106 58 -126 5 -4 49
13 98 39 l90 47 -36 69 c-20 38 -39 68 -42 68 -3 -1 -41 -20 -84 -43z"/>
<path d="M4912 6158 c33 -57 62 -105 64 -107 5 -6 73 59 85 81 7 13 1 20 -29
35 -20 10 -67 36 -105 56 -37 20 -69 37 -72 37 -2 0 23 -46 57 -102z"/>
<path d="M3970 6181 c0 -5 -3 -16 -6 -25 -7 -19 16 -22 34 -4 8 8 9 15 1 25
-13 15 -29 17 -29 4z"/>
<path d="M3703 5893 c-7 -17 28 -53 52 -53 7 0 16 -6 18 -12 4 -9 12 -5 26 12
l20 25 -42 22 c-51 27 -66 28 -74 6z"/>
<path d="M4443 5758 c-6 -7 -29 -46 -53 -87 l-42 -73 28 -24 c16 -13 32 -23
36 -24 11 0 133 -74 136 -82 2 -5 8 -8 14 -8 6 0 34 -14 61 -31 l51 -31 18 23
c30 39 32 43 61 97 25 46 27 54 13 67 -8 8 -17 15 -21 15 -6 0 -220 124 -271
157 -17 11 -23 11 -31 1z"/>
<path d="M2950 4475 c0 -9 10 -16 25 -16 14 -1 31 -2 37 -3 7 -1 14 7 16 17 3
14 -4 17 -37 17 -30 0 -41 -4 -41 -15z"/>
<path d="M3568 4154 c-10 -10 4 -44 18 -44 15 0 17 10 8 34 -6 16 -16 20 -26
10z"/>
<path d="M4315 2821 c-3 -5 7 -19 21 -30 46 -36 62 -22 21 17 -26 24 -33 26
-42 13z"/>
<path d="M4686 2654 c-8 -21 1 -34 24 -34 22 0 33 23 17 39 -16 16 -34 14 -41
-5z"/>
<path d="M5014 2469 c-3 -6 -1 -16 5 -22 8 -8 11 -5 11 11 0 24 -5 28 -16 11z"/>
<path d="M7239 5169 c-118 -134 -116 -120 -29 -166 50 -27 58 -29 86 -17 18 7
46 26 64 43 32 29 32 29 9 33 -13 2 -44 -2 -69 -9 -24 -7 -46 -11 -48 -9 -2 2
17 25 42 50 25 25 46 54 46 64 0 17 -27 82 -34 82 -2 0 -31 -32 -67 -71z"/>
<path d="M6200 5174 c-88 -28 -140 -97 -140 -184 0 -195 221 -279 349 -133 69
77 68 179 0 257 -55 63 -133 85 -209 60z"/>
</g>
</svg>
